<svg width="187" height="50" viewBox="0 0 187 50" fill="none" xmlns="http://www.w3.org/2000/svg">
<path d="M17.334 29.292L14.166 42H11.646L8.964 32.172L6.282 42H3.762L0.594 29.292H2.844L5.04 39.624L7.83 29.292H10.098L12.888 39.624L15.084 29.292H17.334ZM28.3877 36.564C28.3877 36.9 28.3637 37.194 28.3157 37.446H20.6837C20.7197 38.466 21.0017 39.222 21.5297 39.714C22.0577 40.206 22.7117 40.452 23.4917 40.452C24.1757 40.452 24.7517 40.278 25.2197 39.93C25.6997 39.582 25.9937 39.12 26.1017 38.544H28.2977C28.1657 39.24 27.8897 39.858 27.4697 40.398C27.0497 40.938 26.5037 41.364 25.8317 41.676C25.1597 41.976 24.4097 42.126 23.5817 42.126C22.6217 42.126 21.7697 41.922 21.0257 41.514C20.2937 41.106 19.7177 40.518 19.2977 39.75C18.8777 38.982 18.6677 38.076 18.6677 37.032C18.6677 36 18.8777 35.1 19.2977 34.332C19.7177 33.564 20.2937 32.976 21.0257 32.568C21.7697 32.16 22.6217 31.956 23.5817 31.956C24.5537 31.956 25.3997 32.16 26.1197 32.568C26.8517 32.964 27.4097 33.516 27.7937 34.224C28.1897 34.92 28.3877 35.7 28.3877 36.564ZM26.3177 36.51C26.3417 35.862 26.2277 35.322 25.9757 34.89C25.7357 34.446 25.3997 34.122 24.9677 33.918C24.5477 33.702 24.0857 33.594 23.5817 33.594C22.7777 33.594 22.1057 33.84 21.5657 34.332C21.0257 34.824 20.7317 35.55 20.6837 36.51H26.3177ZM31.737 27.636L31.521 31.344H30.117L29.883 27.636H31.737ZM37.8295 39.876L40.6375 32.082H42.8335L39.0535 42H36.5695L32.7895 32.082H34.9855L37.8295 39.876ZM53.5596 36.564C53.5596 36.9 53.5356 37.194 53.4876 37.446H45.8556C45.8916 38.466 46.1736 39.222 46.7016 39.714C47.2296 40.206 47.8836 40.452 48.6636 40.452C49.3476 40.452 49.9236 40.278 50.3916 39.93C50.8716 39.582 51.1656 39.12 51.2736 38.544H53.4696C53.3376 39.24 53.0616 39.858 52.6416 40.398C52.2216 40.938 51.6756 41.364 51.0036 41.676C50.3316 41.976 49.5816 42.126 48.7536 42.126C47.7936 42.126 46.9416 41.922 46.1976 41.514C45.4656 41.106 44.8896 40.518 44.4696 39.75C44.0496 38.982 43.8396 38.076 43.8396 37.032C43.8396 36 44.0496 35.1 44.4696 34.332C44.8896 33.564 45.4656 32.976 46.1976 32.568C46.9416 32.16 47.7936 31.956 48.7536 31.956C49.7256 31.956 50.5716 32.16 51.2916 32.568C52.0236 32.964 52.5816 33.516 52.9656 34.224C53.3616 34.92 53.5596 35.7 53.5596 36.564ZM51.4896 36.51C51.5136 35.862 51.3996 35.322 51.1476 34.89C50.9076 34.446 50.5716 34.122 50.1396 33.918C49.7196 33.702 49.2576 33.594 48.7536 33.594C47.9496 33.594 47.2776 33.84 46.7376 34.332C46.1976 34.824 45.9036 35.55 45.8556 36.51H51.4896ZM75.8516 29.292L72.6836 42H70.1636L67.4816 32.172L64.7996 42H62.2796L59.1116 29.292H61.3616L63.5576 39.624L66.3476 29.292H68.6156L71.4056 39.624L73.6016 29.292H75.8516ZM82.2253 31.956C83.1853 31.956 84.0493 32.16 84.8173 32.568C85.5853 32.976 86.1853 33.564 86.6173 34.332C87.0493 35.1 87.2653 36 87.2653 37.032C87.2653 38.076 87.0493 38.982 86.6173 39.75C86.1853 40.518 85.5853 41.106 84.8173 41.514C84.0493 41.922 83.1853 42.126 82.2253 42.126C81.2653 42.126 80.4013 41.922 79.6333 41.514C78.8773 41.106 78.2773 40.518 77.8333 39.75C77.4013 38.97 77.1853 38.064 77.1853 37.032C77.1853 36 77.4013 35.1 77.8333 34.332C78.2773 33.564 78.8773 32.976 79.6333 32.568C80.4013 32.16 81.2653 31.956 82.2253 31.956ZM82.2253 33.738C81.6973 33.738 81.2113 33.858 80.7673 34.098C80.3233 34.338 79.9633 34.71 79.6873 35.214C79.4233 35.706 79.2913 36.312 79.2913 37.032C79.2913 37.764 79.4233 38.376 79.6873 38.868C79.9633 39.36 80.3233 39.726 80.7673 39.966C81.2113 40.206 81.6973 40.326 82.2253 40.326C82.7533 40.326 83.2393 40.206 83.6833 39.966C84.1273 39.726 84.4813 39.36 84.7453 38.868C85.0213 38.376 85.1593 37.764 85.1593 37.032C85.1593 36.312 85.0213 35.706 84.7453 35.214C84.4813 34.71 84.1273 34.338 83.6833 34.098C83.2393 33.858 82.7533 33.738 82.2253 33.738ZM91.2901 34.026C91.6261 33.378 92.1061 32.868 92.7301 32.496C93.3541 32.112 94.0741 31.92 94.8901 31.92V34.152H94.2781C93.3781 34.152 92.6521 34.374 92.1001 34.818C91.5601 35.25 91.2901 35.97 91.2901 36.978V42H89.2381V32.082H91.2901V34.026ZM102.044 42L98.4795 37.59V42H96.4275V28.68H98.4795V36.312L102.008 32.082H104.474L100.154 37.014L104.582 42H102.044ZM115.136 36.564C115.136 36.9 115.112 37.194 115.064 37.446H107.432C107.468 38.466 107.75 39.222 108.278 39.714C108.806 40.206 109.46 40.452 110.24 40.452C110.924 40.452 111.5 40.278 111.968 39.93C112.448 39.582 112.742 39.12 112.85 38.544H115.046C114.914 39.24 114.638 39.858 114.218 40.398C113.798 40.938 113.252 41.364 112.58 41.676C111.908 41.976 111.158 42.126 110.33 42.126C109.37 42.126 108.518 41.922 107.774 41.514C107.042 41.106 106.466 40.518 106.046 39.75C105.626 38.982 105.416 38.076 105.416 37.032C105.416 36 105.626 35.1 106.046 34.332C106.466 33.564 107.042 32.976 107.774 32.568C108.518 32.16 109.37 31.956 110.33 31.956C111.302 31.956 112.148 32.16 112.868 32.568C113.6 32.964 114.158 33.516 114.542 34.224C114.938 34.92 115.136 35.7 115.136 36.564ZM113.066 36.51C113.09 35.862 112.976 35.322 112.724 34.89C112.484 34.446 112.148 34.122 111.716 33.918C111.296 33.702 110.834 33.594 110.33 33.594C109.526 33.594 108.854 33.84 108.314 34.332C107.774 34.824 107.48 35.55 107.432 36.51H113.066ZM121.095 31.956C121.995 31.956 122.763 32.178 123.399 32.622C124.035 33.066 124.479 33.654 124.731 34.386V28.68H126.801V42H124.731V39.696C124.479 40.428 124.035 41.016 123.399 41.46C122.763 41.904 121.995 42.126 121.095 42.126C120.231 42.126 119.457 41.922 118.773 41.514C118.101 41.106 117.573 40.518 117.189 39.75C116.805 38.982 116.613 38.076 116.613 37.032C116.613 36 116.805 35.1 117.189 34.332C117.573 33.564 118.101 32.976 118.773 32.568C119.457 32.16 120.231 31.956 121.095 31.956ZM121.725 33.756C120.813 33.756 120.081 34.05 119.529 34.638C118.989 35.214 118.719 36.012 118.719 37.032C118.719 38.052 118.989 38.856 119.529 39.444C120.081 40.02 120.813 40.308 121.725 40.308C122.301 40.308 122.817 40.176 123.273 39.912C123.729 39.636 124.089 39.252 124.353 38.76C124.617 38.268 124.749 37.692 124.749 37.032C124.749 36.384 124.617 35.814 124.353 35.322C124.089 34.818 123.729 34.434 123.273 34.17C122.817 33.894 122.301 33.756 121.725 33.756ZM147.378 32.082L144.624 42H142.356L139.908 34.332L137.424 42H135.174L132.42 32.082H134.49L136.38 40.11L138.864 32.082H141.024L143.544 40.11L145.434 32.082H147.378ZM148.487 29.202C148.487 28.854 148.607 28.566 148.847 28.338C149.087 28.11 149.405 27.996 149.801 27.996C150.197 27.996 150.515 28.11 150.755 28.338C151.007 28.566 151.133 28.854 151.133 29.202C151.133 29.55 151.007 29.832 150.755 30.048C150.515 30.264 150.197 30.372 149.801 30.372C149.405 30.372 149.087 30.264 148.847 30.048C148.607 29.832 148.487 29.55 148.487 29.202ZM150.827 32.082V42H148.775V32.082H150.827ZM158.296 40.218V42H157.036C155.98 42 155.176 41.748 154.624 41.244C154.084 40.728 153.814 39.876 153.814 38.688V33.828H152.392V32.082H153.814V29.616H155.884V32.082H158.278V33.828H155.884V38.724C155.884 39.288 155.986 39.678 156.19 39.894C156.406 40.11 156.778 40.218 157.306 40.218H158.296ZM165.763 31.92C166.915 31.92 167.839 32.292 168.535 33.036C169.231 33.78 169.579 34.842 169.579 36.222V42H167.527V36.438C167.527 35.55 167.299 34.866 166.843 34.386C166.387 33.894 165.763 33.648 164.971 33.648C164.155 33.648 163.501 33.912 163.009 34.44C162.517 34.956 162.271 35.718 162.271 36.726V42H160.219V28.68H162.271V34.26C162.535 33.516 162.979 32.94 163.603 32.532C164.227 32.124 164.947 31.92 165.763 31.92Z" fill="white"/>
<path opacity="0.6" d="M5.544 4.99C6.45867 4.99 7.28467 5.20467 8.022 5.634C8.76867 6.06333 9.352 6.66533 9.772 7.44C10.2013 8.20533 10.416 9.07333 10.416 10.044C10.416 11.0147 10.2013 11.8873 9.772 12.662C9.352 13.4273 8.76867 14.0293 8.022 14.468C7.28467 14.8973 6.45867 15.112 5.544 15.112C4.62 15.112 3.78467 14.8973 3.038 14.468C2.30067 14.0293 1.71733 13.4273 1.288 12.662C0.858667 11.8873 0.644 11.0147 0.644 10.044C0.644 9.07333 0.858667 8.20533 1.288 7.44C1.71733 6.66533 2.30067 6.06333 3.038 5.634C3.78467 5.20467 4.62 4.99 5.544 4.99ZM5.544 6.474C4.90933 6.474 4.34467 6.61867 3.85 6.908C3.35533 7.19733 2.968 7.61267 2.688 8.154C2.41733 8.69533 2.282 9.32533 2.282 10.044C2.282 10.7627 2.41733 11.3927 2.688 11.934C2.968 12.4753 3.35533 12.8907 3.85 13.18C4.34467 13.4693 4.90933 13.614 5.544 13.614C6.16933 13.614 6.72467 13.4693 7.21 13.18C7.70467 12.8907 8.08733 12.4753 8.358 11.934C8.638 11.3927 8.778 10.7627 8.778 10.044C8.778 9.32533 8.638 8.69533 8.358 8.154C8.08733 7.61267 7.70467 7.19733 7.21 6.908C6.72467 6.61867 6.16933 6.474 5.544 6.474ZM19.1385 7.286V15H17.5285V13.32C17.3325 13.8893 16.9919 14.3327 16.5065 14.65C16.0212 14.958 15.4565 15.112 14.8125 15.112C13.9165 15.112 13.1979 14.8227 12.6565 14.244C12.1152 13.6653 11.8445 12.8393 11.8445 11.766V7.286H13.4405V11.598C13.4405 12.298 13.6179 12.8393 13.9725 13.222C14.3272 13.5953 14.8125 13.782 15.4285 13.782C16.0632 13.782 16.5719 13.5767 16.9545 13.166C17.3372 12.7553 17.5285 12.158 17.5285 11.374V7.286H19.1385ZM22.646 8.798C22.9073 8.294 23.2807 7.89733 23.766 7.608C24.2513 7.30933 24.8113 7.16 25.446 7.16V8.896H24.97C24.27 8.896 23.7053 9.06867 23.276 9.414C22.856 9.75 22.646 10.31 22.646 11.094V15H21.05V7.286H22.646V8.798ZM34.333 5.018C35.5464 5.018 36.5544 5.326 37.357 5.942C38.1597 6.558 38.701 7.39333 38.981 8.448H37.287C37.0537 7.85067 36.6804 7.37933 36.167 7.034C35.663 6.67933 35.0424 6.502 34.305 6.502C33.717 6.502 33.1897 6.64667 32.723 6.936C32.2657 7.22533 31.9017 7.64067 31.631 8.182C31.3697 8.714 31.239 9.33933 31.239 10.058C31.239 10.7673 31.3697 11.3927 31.631 11.934C31.9017 12.466 32.2657 12.8767 32.723 13.166C33.1897 13.4553 33.717 13.6 34.305 13.6C35.0424 13.6 35.663 13.4273 36.167 13.082C36.6804 12.7273 37.0537 12.256 37.287 11.668H38.981C38.701 12.7227 38.1597 13.558 37.357 14.174C36.5544 14.7807 35.5464 15.084 34.333 15.084C33.3997 15.084 32.5737 14.874 31.855 14.454C31.1364 14.0247 30.581 13.432 30.189 12.676C29.797 11.9107 29.601 11.038 29.601 10.058C29.601 9.078 29.797 8.21 30.189 7.454C30.581 6.68867 31.1364 6.09133 31.855 5.662C32.5737 5.23267 33.3997 5.018 34.333 5.018ZM42.1694 4.64V15H40.5734V4.64H42.1694ZM43.8768 5.046C43.8768 4.77533 43.9701 4.55133 44.1568 4.374C44.3434 4.19667 44.5908 4.108 44.8988 4.108C45.2068 4.108 45.4541 4.19667 45.6408 4.374C45.8368 4.55133 45.9348 4.77533 45.9348 5.046C45.9348 5.31667 45.8368 5.536 45.6408 5.704C45.4541 5.872 45.2068 5.956 44.8988 5.956C44.5908 5.956 44.3434 5.872 44.1568 5.704C43.9701 5.536 43.8768 5.31667 43.8768 5.046ZM45.6968 7.286V15H44.1008V7.286H45.6968ZM54.7961 10.772C54.7961 11.0333 54.7774 11.262 54.7401 11.458H48.8041C48.8321 12.2513 49.0514 12.8393 49.4621 13.222C49.8728 13.6047 50.3814 13.796 50.9881 13.796C51.5201 13.796 51.9681 13.6607 52.3321 13.39C52.7054 13.1193 52.9341 12.76 53.0181 12.312H54.7261C54.6234 12.8533 54.4088 13.334 54.0821 13.754C53.7554 14.174 53.3308 14.5053 52.8081 14.748C52.2854 14.9813 51.7021 15.098 51.0581 15.098C50.3114 15.098 49.6488 14.9393 49.0701 14.622C48.5008 14.3047 48.0528 13.8473 47.7261 13.25C47.3994 12.6527 47.2361 11.948 47.2361 11.136C47.2361 10.3333 47.3994 9.63333 47.7261 9.036C48.0528 8.43867 48.5008 7.98133 49.0701 7.664C49.6488 7.34667 50.3114 7.188 51.0581 7.188C51.8141 7.188 52.4721 7.34667 53.0321 7.664C53.6014 7.972 54.0354 8.40133 54.3341 8.952C54.6421 9.49333 54.7961 10.1 54.7961 10.772ZM53.1861 10.73C53.2048 10.226 53.1161 9.806 52.9201 9.47C52.7334 9.12467 52.4721 8.87267 52.1361 8.714C51.8094 8.546 51.4501 8.462 51.0581 8.462C50.4328 8.462 49.9101 8.65333 49.4901 9.036C49.0701 9.41867 48.8414 9.98333 48.8041 10.73H53.1861ZM60.6491 7.16C61.5451 7.16 62.2638 7.44933 62.8051 8.028C63.3464 8.60667 63.6171 9.43267 63.6171 10.506V15H62.0211V10.674C62.0211 9.98333 61.8438 9.45133 61.4891 9.078C61.1344 8.69533 60.6491 8.504 60.0331 8.504C59.3984 8.504 58.8898 8.70933 58.5071 9.12C58.1244 9.52133 57.9331 10.114 57.9331 10.898V15H56.3371V7.286H57.9331V8.98C58.1384 8.40133 58.4838 7.95333 58.9691 7.636C59.4544 7.31867 60.0144 7.16 60.6491 7.16ZM69.3616 13.614V15H68.3816C67.5602 15 66.9349 14.804 66.5056 14.412C66.0856 14.0107 65.8756 13.348 65.8756 12.424V8.644H64.7696V7.286H65.8756V5.368H67.4856V7.286H69.3476V8.644H67.4856V12.452C67.4856 12.8907 67.5649 13.194 67.7236 13.362C67.8916 13.53 68.1809 13.614 68.5916 13.614H69.3616ZM73.3906 7.188C74.296 7.188 75.0193 7.42133 75.5606 7.888C76.1113 8.34533 76.4473 8.96133 76.5686 9.736H75.0566C74.9913 9.316 74.8093 8.98 74.5106 8.728C74.2213 8.46667 73.834 8.336 73.3486 8.336C72.9473 8.336 72.6346 8.434 72.4106 8.63C72.196 8.81667 72.0886 9.07333 72.0886 9.4C72.0886 9.64267 72.168 9.83867 72.3266 9.988C72.4853 10.1373 72.6813 10.254 72.9146 10.338C73.1573 10.422 73.498 10.5153 73.9366 10.618C74.5153 10.7487 74.982 10.884 75.3366 11.024C75.7006 11.164 76.0086 11.388 76.2606 11.696C76.522 11.9947 76.6526 12.4053 76.6526 12.928C76.6526 13.572 76.4053 14.0947 75.9106 14.496C75.4253 14.8973 74.7673 15.098 73.9366 15.098C72.9753 15.098 72.196 14.874 71.5986 14.426C71.0106 13.978 70.656 13.3527 70.5346 12.55H72.0886C72.1353 12.97 72.322 13.3107 72.6486 13.572C72.9753 13.8333 73.4046 13.964 73.9366 13.964C74.3193 13.964 74.618 13.866 74.8326 13.67C75.0566 13.4647 75.1686 13.208 75.1686 12.9C75.1686 12.6293 75.0846 12.4147 74.9166 12.256C74.7486 12.0973 74.5386 11.976 74.2866 11.892C74.0346 11.7987 73.6893 11.7053 73.2506 11.612C72.6906 11.4813 72.2333 11.3507 71.8786 11.22C71.5333 11.0893 71.2346 10.8793 70.9826 10.59C70.74 10.2913 70.6186 9.89 70.6186 9.386C70.6186 8.73267 70.8613 8.20533 71.3466 7.804C71.8413 7.39333 72.5226 7.188 73.3906 7.188Z" fill="white"/>
</svg>
