<svg width="135" height="96" viewBox="0 0 135 96" fill="none" xmlns="http://www.w3.org/2000/svg">
<path d="M2.624 85.456V90H1.168V78.72H4.752C6.04267 78.72 7.008 79.024 7.648 79.632C8.288 80.2293 8.608 81.0507 8.608 82.096C8.608 83.152 8.27733 83.9787 7.616 84.576C6.95467 85.1627 6 85.456 4.752 85.456H2.624ZM4.624 84.24C5.50933 84.24 6.144 84.0533 6.528 83.68C6.92267 83.3067 7.12 82.7787 7.12 82.096C7.12 81.392 6.92267 80.8587 6.528 80.496C6.144 80.1227 5.50933 79.936 4.624 79.936H2.624V84.24H4.624ZM11.7646 82.992C12.0526 82.384 12.474 81.9147 13.0286 81.584C13.5833 81.2427 14.2446 81.072 15.0126 81.072V82.656H14.5646C13.7433 82.656 13.0713 82.8693 12.5486 83.296C12.026 83.712 11.7646 84.4053 11.7646 85.376V90H10.3086V81.216H11.7646V82.992ZM20.4333 81.104C21.2759 81.104 22.0279 81.2853 22.6893 81.648C23.3613 82.0107 23.8839 82.5333 24.2573 83.216C24.6413 83.8987 24.8333 84.6987 24.8333 85.616C24.8333 86.5333 24.6413 87.3333 24.2573 88.016C23.8839 88.688 23.3613 89.2053 22.6893 89.568C22.0279 89.9307 21.2759 90.112 20.4333 90.112C19.5906 90.112 18.8333 89.9307 18.1613 89.568C17.4999 89.2053 16.9773 88.688 16.5933 88.016C16.2093 87.3333 16.0173 86.5333 16.0173 85.616C16.0173 84.6987 16.2093 83.8987 16.5933 83.216C16.9773 82.5333 17.4999 82.0107 18.1613 81.648C18.8333 81.2853 19.5906 81.104 20.4333 81.104ZM20.4333 82.384C19.9106 82.384 19.4253 82.5013 18.9773 82.736C18.5399 82.9707 18.1826 83.3333 17.9053 83.824C17.6386 84.304 17.5053 84.9013 17.5053 85.616C17.5053 86.32 17.6386 86.9173 17.9053 87.408C18.1826 87.888 18.5399 88.2453 18.9773 88.48C19.4253 88.7147 19.9106 88.832 20.4333 88.832C20.9559 88.832 21.4359 88.7147 21.8733 88.48C22.3213 88.2453 22.6786 87.888 22.9453 87.408C23.2226 86.9173 23.3612 86.32 23.3612 85.616C23.3612 84.9013 23.2226 84.304 22.9453 83.824C22.6786 83.3333 22.3213 82.9707 21.8733 82.736C21.4359 82.5013 20.9559 82.384 20.4333 82.384ZM27.5625 79.536C27.2638 79.536 27.0185 79.456 26.8265 79.296C26.6452 79.1253 26.5545 78.9067 26.5545 78.64C26.5545 78.3733 26.6452 78.16 26.8265 78C27.0185 77.8293 27.2638 77.744 27.5625 77.744C27.8505 77.744 28.0852 77.8293 28.2665 78C28.4478 78.16 28.5385 78.3733 28.5385 78.64C28.5385 78.9067 28.4478 79.1253 28.2665 79.296C28.0852 79.456 27.8505 79.536 27.5625 79.536ZM25.1145 92.88H25.7225C26.1065 92.88 26.3838 92.7947 26.5545 92.624C26.7358 92.4533 26.8265 92.16 26.8265 91.744V81.216H28.2985V91.792C28.2985 93.3707 27.4985 94.16 25.8985 94.16H25.1145V92.88ZM38.7011 85.12C38.7011 85.4293 38.6798 85.696 38.6371 85.92H31.6131C31.6451 86.9227 31.9278 87.6747 32.4611 88.176C33.0051 88.6773 33.6665 88.928 34.4451 88.928C35.1491 88.928 35.7358 88.752 36.2051 88.4C36.6851 88.0373 36.9785 87.5573 37.0851 86.96H38.6371C38.5305 87.568 38.2905 88.112 37.9171 88.592C37.5545 89.072 37.0798 89.4453 36.4931 89.712C35.9065 89.9787 35.2451 90.112 34.5091 90.112C33.6665 90.112 32.9198 89.9307 32.2691 89.568C31.6185 89.2053 31.1065 88.688 30.7331 88.016C30.3705 87.3333 30.1891 86.5333 30.1891 85.616C30.1891 84.6987 30.3705 83.8987 30.7331 83.216C31.1065 82.5333 31.6185 82.0107 32.2691 81.648C32.9198 81.2853 33.6665 81.104 34.5091 81.104C35.3625 81.104 36.1038 81.2853 36.7331 81.648C37.3731 82.0107 37.8585 82.496 38.1891 83.104C38.5305 83.712 38.7011 84.384 38.7011 85.12ZM37.2291 85.216C37.2611 84.5653 37.1545 84.0213 36.9091 83.584C36.6638 83.1467 36.3278 82.8213 35.9011 82.608C35.4745 82.3947 35.0105 82.288 34.5091 82.288C33.7091 82.288 33.0371 82.5387 32.4931 83.04C31.9491 83.5307 31.6558 84.256 31.6131 85.216H37.2291ZM44.4935 81.104C45.6135 81.104 46.5415 81.4027 47.2775 82C48.0135 82.5973 48.4668 83.3973 48.6375 84.4H47.1015C46.9948 83.7707 46.7015 83.28 46.2215 82.928C45.7522 82.5653 45.1655 82.384 44.4615 82.384C43.9495 82.384 43.4802 82.5013 43.0535 82.736C42.6375 82.9707 42.3015 83.3333 42.0455 83.824C41.7895 84.304 41.6615 84.9013 41.6615 85.616C41.6615 86.3307 41.7895 86.9333 42.0455 87.424C42.3015 87.904 42.6375 88.2613 43.0535 88.496C43.4802 88.7307 43.9495 88.848 44.4615 88.848C45.1655 88.848 45.7522 88.6667 46.2215 88.304C46.7015 87.9413 46.9948 87.4453 47.1015 86.816H48.6375C48.4668 87.8293 48.0135 88.6347 47.2775 89.232C46.5415 89.8187 45.6135 90.112 44.4935 90.112C43.6508 90.112 42.9042 89.9307 42.2535 89.568C41.6028 89.2053 41.0908 88.688 40.7175 88.016C40.3548 87.3333 40.1735 86.5333 40.1735 85.616C40.1735 84.6987 40.3548 83.8987 40.7175 83.216C41.0908 82.5333 41.6028 82.0107 42.2535 81.648C42.9042 81.2853 43.6508 81.104 44.4935 81.104ZM54.735 88.72V90H53.647C52.751 90 52.079 89.7867 51.631 89.36C51.1937 88.9333 50.975 88.2187 50.975 87.216V82.48H49.663V81.216H50.975V79.024H52.447V81.216H54.719V82.48H52.447V87.248C52.447 87.8133 52.5483 88.2027 52.751 88.416C52.9643 88.6187 53.327 88.72 53.839 88.72H54.735ZM69.9689 84.352C69.9689 85.4933 69.7395 86.4907 69.2809 87.344C68.8222 88.1867 68.1449 88.8427 67.2489 89.312C66.3635 89.7707 65.2969 90 64.0489 90H60.4649V78.72H64.0489C65.2969 78.72 66.3635 78.9493 67.2489 79.408C68.1449 79.856 68.8222 80.5067 69.2809 81.36C69.7395 82.2027 69.9689 83.2 69.9689 84.352ZM63.9369 88.688C65.4089 88.688 66.5342 88.3093 67.3129 87.552C68.0915 86.7947 68.4809 85.728 68.4809 84.352C68.4809 82.976 68.0915 81.9093 67.3129 81.152C66.5449 80.384 65.4195 80 63.9369 80H61.9209V88.688H63.9369ZM80.0136 85.12C80.0136 85.4293 79.9923 85.696 79.9496 85.92H72.9256C72.9576 86.9227 73.2403 87.6747 73.7736 88.176C74.3176 88.6773 74.979 88.928 75.7576 88.928C76.4616 88.928 77.0483 88.752 77.5176 88.4C77.9976 88.0373 78.291 87.5573 78.3976 86.96H79.9496C79.843 87.568 79.603 88.112 79.2296 88.592C78.867 89.072 78.3923 89.4453 77.8056 89.712C77.219 89.9787 76.5576 90.112 75.8216 90.112C74.979 90.112 74.2323 89.9307 73.5816 89.568C72.931 89.2053 72.419 88.688 72.0456 88.016C71.683 87.3333 71.5016 86.5333 71.5016 85.616C71.5016 84.6987 71.683 83.8987 72.0456 83.216C72.419 82.5333 72.931 82.0107 73.5816 81.648C74.2323 81.2853 74.979 81.104 75.8216 81.104C76.675 81.104 77.4163 81.2853 78.0456 81.648C78.6856 82.0107 79.171 82.496 79.5016 83.104C79.843 83.712 80.0136 84.384 80.0136 85.12ZM78.5416 85.216C78.5736 84.5653 78.467 84.0213 78.2216 83.584C77.9763 83.1467 77.6403 82.8213 77.2136 82.608C76.787 82.3947 76.323 82.288 75.8216 82.288C75.0216 82.288 74.3496 82.5387 73.8056 83.04C73.2616 83.5307 72.9683 84.256 72.9256 85.216H78.5416ZM83.374 78.16V90H81.918V78.16H83.374ZM85.4589 78.64C85.4589 78.3733 85.5495 78.16 85.7309 78C85.9122 77.8293 86.1522 77.744 86.4509 77.744C86.7495 77.744 86.9895 77.8293 87.1709 78C87.3522 78.16 87.4429 78.3733 87.4429 78.64C87.4429 78.9067 87.3522 79.1253 87.1709 79.296C86.9895 79.456 86.7495 79.536 86.4509 79.536C86.1522 79.536 85.9122 79.456 85.7309 79.296C85.5495 79.1253 85.4589 78.9067 85.4589 78.64ZM87.1709 81.216V90H85.7149V81.216H87.1709ZM92.9198 88.448L95.6398 81.216H97.2078L93.7678 90H92.0398L88.5998 81.216H90.1678L92.9198 88.448ZM106.717 85.12C106.717 85.4293 106.695 85.696 106.653 85.92H99.6288C99.6608 86.9227 99.9434 87.6747 100.477 88.176C101.021 88.6773 101.682 88.928 102.461 88.928C103.165 88.928 103.751 88.752 104.221 88.4C104.701 88.0373 104.994 87.5573 105.101 86.96H106.653C106.546 87.568 106.306 88.112 105.933 88.592C105.57 89.072 105.095 89.4453 104.509 89.712C103.922 89.9787 103.261 90.112 102.525 90.112C101.682 90.112 100.935 89.9307 100.285 89.568C99.6341 89.2053 99.1221 88.688 98.7488 88.016C98.3861 87.3333 98.2048 86.5333 98.2048 85.616C98.2048 84.6987 98.3861 83.8987 98.7488 83.216C99.1221 82.5333 99.6341 82.0107 100.285 81.648C100.935 81.2853 101.682 81.104 102.525 81.104C103.378 81.104 104.119 81.2853 104.749 81.648C105.389 82.0107 105.874 82.496 106.205 83.104C106.546 83.712 106.717 84.384 106.717 85.12ZM105.245 85.216C105.277 84.5653 105.17 84.0213 104.925 83.584C104.679 83.1467 104.343 82.8213 103.917 82.608C103.49 82.3947 103.026 82.288 102.525 82.288C101.725 82.288 101.053 82.5387 100.509 83.04C99.9648 83.5307 99.6714 84.256 99.6288 85.216H105.245ZM110.077 82.992C110.365 82.384 110.786 81.9147 111.341 81.584C111.896 81.2427 112.557 81.072 113.325 81.072V82.656H112.877C112.056 82.656 111.384 82.8693 110.861 83.296C110.338 83.712 110.077 84.4053 110.077 85.376V90H108.621V81.216H110.077V82.992ZM122.842 85.12C122.842 85.4293 122.82 85.696 122.778 85.92H115.754C115.786 86.9227 116.068 87.6747 116.602 88.176C117.146 88.6773 117.807 88.928 118.586 88.928C119.29 88.928 119.876 88.752 120.346 88.4C120.826 88.0373 121.119 87.5573 121.226 86.96H122.778C122.671 87.568 122.431 88.112 122.058 88.592C121.695 89.072 121.22 89.4453 120.634 89.712C120.047 89.9787 119.386 90.112 118.65 90.112C117.807 90.112 117.06 89.9307 116.41 89.568C115.759 89.2053 115.247 88.688 114.874 88.016C114.511 87.3333 114.33 86.5333 114.33 85.616C114.33 84.6987 114.511 83.8987 114.874 83.216C115.247 82.5333 115.759 82.0107 116.41 81.648C117.06 81.2853 117.807 81.104 118.65 81.104C119.503 81.104 120.244 81.2853 120.874 81.648C121.514 82.0107 121.999 82.496 122.33 83.104C122.671 83.712 122.842 84.384 122.842 85.12ZM121.37 85.216C121.402 84.5653 121.295 84.0213 121.05 83.584C120.804 83.1467 120.468 82.8213 120.042 82.608C119.615 82.3947 119.151 82.288 118.65 82.288C117.85 82.288 117.178 82.5387 116.634 83.04C116.09 83.5307 115.796 84.256 115.754 85.216H121.37ZM128.346 81.104C129.199 81.104 129.919 81.3173 130.506 81.744C131.103 82.1707 131.519 82.7413 131.754 83.456V78.16H133.21V90H131.754V87.76C131.519 88.4747 131.103 89.0453 130.506 89.472C129.919 89.8987 129.199 90.112 128.346 90.112C127.567 90.112 126.874 89.9307 126.266 89.568C125.658 89.2053 125.178 88.688 124.826 88.016C124.485 87.3333 124.314 86.5333 124.314 85.616C124.314 84.6987 124.485 83.8987 124.826 83.216C125.178 82.5333 125.658 82.0107 126.266 81.648C126.874 81.2853 127.567 81.104 128.346 81.104ZM128.762 82.4C127.866 82.4 127.146 82.688 126.602 83.264C126.069 83.8293 125.802 84.6133 125.802 85.616C125.802 86.6187 126.069 87.408 126.602 87.984C127.146 88.5493 127.866 88.832 128.762 88.832C129.338 88.832 129.85 88.6987 130.298 88.432C130.757 88.1653 131.114 87.792 131.37 87.312C131.626 86.8213 131.754 86.256 131.754 85.616C131.754 84.976 131.626 84.4107 131.37 83.92C131.114 83.4293 130.757 83.056 130.298 82.8C129.85 82.5333 129.338 82.4 128.762 82.4Z" fill="black"/>
<rect y="62.0001" width="71.9999" height="6.00003" fill="#444CFC"/>
<rect x="10.4023" y="62" width="61.5953" height="6.00003" fill="#FFA155"/>
<rect x="10.0498" y="62" width="44.6449" height="5.99069" fill="#FFD3AF"/>
<path d="M0.432 19.336V14.584H9.576V40H4.248V19.336H0.432ZM31.7548 18.544H19.6948V24.952C20.2468 24.304 21.0028 23.788 21.9628 23.404C22.9468 22.996 24.0268 22.792 25.2028 22.792C26.9548 22.792 28.4068 23.176 29.5588 23.944C30.7348 24.688 31.5988 25.696 32.1508 26.968C32.7268 28.216 33.0148 29.608 33.0148 31.144C33.0148 33.856 32.2468 36.028 30.7108 37.66C29.1988 39.292 27.0268 40.108 24.1948 40.108C22.3468 40.108 20.7388 39.784 19.3708 39.136C18.0028 38.464 16.9348 37.54 16.1668 36.364C15.3988 35.164 14.9788 33.772 14.9068 32.188H19.8388C20.0308 33.268 20.4748 34.132 21.1708 34.78C21.8668 35.404 22.7908 35.716 23.9428 35.716C25.3348 35.716 26.3668 35.296 27.0388 34.456C27.7348 33.592 28.0828 32.452 28.0828 31.036C28.0828 29.692 27.7228 28.648 27.0028 27.904C26.2828 27.16 25.2628 26.788 23.9428 26.788C22.9828 26.788 22.1668 27.004 21.4948 27.436C20.8228 27.844 20.3308 28.396 20.0188 29.092H15.0868V14.08H31.7548V18.544ZM49.8201 21.496C49.4361 19 48.1641 17.752 46.0041 17.752C44.3241 17.752 43.1001 18.496 42.3321 19.984C41.5641 21.448 41.2281 23.752 41.3241 26.896C41.7081 25.744 42.4521 24.832 43.5561 24.16C44.6841 23.464 45.9921 23.116 47.4801 23.116C49.9281 23.116 51.8481 23.86 53.2401 25.348C54.6561 26.812 55.3641 28.9 55.3641 31.612C55.3641 33.292 55.0281 34.78 54.3561 36.076C53.6841 37.372 52.6761 38.392 51.3321 39.136C50.0121 39.88 48.4041 40.252 46.5081 40.252C42.8121 40.252 40.2681 39.112 38.8761 36.832C37.4841 34.528 36.7881 31.36 36.7881 27.328C36.7881 22.696 37.5321 19.264 39.0201 17.032C40.5321 14.8 42.9681 13.684 46.3281 13.684C48.8961 13.684 50.8641 14.416 52.2321 15.88C53.6001 17.344 54.3801 19.216 54.5721 21.496H49.8201ZM41.7561 31.252C41.7561 32.596 42.1401 33.712 42.9081 34.6C43.7001 35.464 44.8521 35.896 46.3641 35.896C47.6601 35.896 48.6921 35.512 49.4601 34.744C50.2281 33.976 50.6121 32.908 50.6121 31.54C50.6121 30.1 50.2161 28.996 49.4241 28.228C48.6561 27.46 47.6121 27.076 46.2921 27.076C45.0441 27.076 43.9761 27.436 43.0881 28.156C42.2001 28.876 41.7561 29.908 41.7561 31.252ZM58.8561 27.076C58.8561 35.692 62.0961 40 68.5761 40C72.0081 40 74.4801 38.848 75.9921 36.544C77.5041 34.24 78.2601 31.084 78.2601 27.076C78.2601 23.092 77.5041 19.948 75.9921 17.644C74.4801 15.34 72.0081 14.188 68.5761 14.188C62.0961 14.188 58.8561 18.484 58.8561 27.076ZM73.2561 27.076C73.2561 29.692 72.9321 31.708 72.2841 33.124C71.6601 34.516 70.4241 35.212 68.5761 35.212C66.7041 35.212 65.4441 34.516 64.7961 33.124C64.1721 31.708 63.8601 29.692 63.8601 27.076C63.8601 24.484 64.1721 22.492 64.7961 21.1C65.4441 19.684 66.7041 18.976 68.5761 18.976C70.4241 18.976 71.6601 19.684 72.2841 21.1C72.9321 22.492 73.2561 24.484 73.2561 27.076ZM99.2782 29.524H92.5462V36.364H87.6502V29.524H80.9182V24.88H87.6502V18.004H92.5462V24.88H99.2782V29.524Z" fill="#232536"/>
</svg>
