<svg width="103" height="96" viewBox="0 0 103 96" fill="none" xmlns="http://www.w3.org/2000/svg">
<path d="M9.824 78.72V90H8.352V84.784H2.624V90H1.168V78.72H2.624V83.6H8.352V78.72H9.824ZM15.7524 81.104C16.6057 81.104 17.3257 81.3173 17.9124 81.744C18.5097 82.1707 18.9257 82.7413 19.1604 83.456V81.216H20.6164V90H19.1604V87.76C18.9257 88.4747 18.5097 89.0453 17.9124 89.472C17.3257 89.8987 16.6057 90.112 15.7524 90.112C14.9737 90.112 14.2804 89.9307 13.6724 89.568C13.0644 89.2053 12.5844 88.688 12.2324 88.016C11.891 87.3333 11.7204 86.5333 11.7204 85.616C11.7204 84.6987 11.891 83.8987 12.2324 83.216C12.5844 82.5333 13.0644 82.0107 13.6724 81.648C14.2804 81.2853 14.9737 81.104 15.7524 81.104ZM16.1684 82.4C15.2724 82.4 14.5524 82.688 14.0084 83.264C13.475 83.8293 13.2084 84.6133 13.2084 85.616C13.2084 86.6187 13.475 87.408 14.0084 87.984C14.5524 88.5493 15.2724 88.832 16.1684 88.832C16.7444 88.832 17.2564 88.6987 17.7044 88.432C18.163 88.1653 18.5204 87.792 18.7764 87.312C19.0324 86.8213 19.1604 86.256 19.1604 85.616C19.1604 84.976 19.0324 84.4107 18.7764 83.92C18.5204 83.4293 18.163 83.056 17.7044 82.8C17.2564 82.5333 16.7444 82.4 16.1684 82.4ZM27.7816 81.104C28.5603 81.104 29.2536 81.2853 29.8616 81.648C30.4696 82.0107 30.9443 82.5333 31.2856 83.216C31.6376 83.8987 31.8136 84.6987 31.8136 85.616C31.8136 86.5333 31.6376 87.3333 31.2856 88.016C30.9443 88.688 30.4696 89.2053 29.8616 89.568C29.2536 89.9307 28.5603 90.112 27.7816 90.112C26.9283 90.112 26.203 89.8987 25.6056 89.472C25.019 89.0347 24.6136 88.464 24.3896 87.76V94.16H22.9336V81.216H24.3896V83.456C24.6136 82.752 25.019 82.1867 25.6056 81.76C26.203 81.3227 26.9283 81.104 27.7816 81.104ZM27.3656 82.4C26.8003 82.4 26.2883 82.5333 25.8296 82.8C25.371 83.056 25.0136 83.4293 24.7576 83.92C24.5016 84.4107 24.3736 84.976 24.3736 85.616C24.3736 86.256 24.5016 86.8213 24.7576 87.312C25.0136 87.792 25.371 88.1653 25.8296 88.432C26.2883 88.6987 26.8003 88.832 27.3656 88.832C28.2723 88.832 28.9923 88.5493 29.5256 87.984C30.0696 87.408 30.3416 86.6187 30.3416 85.616C30.3416 84.6133 30.0696 83.8293 29.5256 83.264C28.9923 82.688 28.2723 82.4 27.3656 82.4ZM38.5629 81.104C39.3415 81.104 40.0349 81.2853 40.6429 81.648C41.2509 82.0107 41.7255 82.5333 42.0669 83.216C42.4189 83.8987 42.5949 84.6987 42.5949 85.616C42.5949 86.5333 42.4189 87.3333 42.0669 88.016C41.7255 88.688 41.2509 89.2053 40.6429 89.568C40.0349 89.9307 39.3415 90.112 38.5629 90.112C37.7095 90.112 36.9842 89.8987 36.3869 89.472C35.8002 89.0347 35.3949 88.464 35.1709 87.76V94.16H33.7149V81.216H35.1709V83.456C35.3949 82.752 35.8002 82.1867 36.3869 81.76C36.9842 81.3227 37.7095 81.104 38.5629 81.104ZM38.1469 82.4C37.5815 82.4 37.0695 82.5333 36.6109 82.8C36.1522 83.056 35.7949 83.4293 35.5389 83.92C35.2829 84.4107 35.1549 84.976 35.1549 85.616C35.1549 86.256 35.2829 86.8213 35.5389 87.312C35.7949 87.792 36.1522 88.1653 36.6109 88.432C37.0695 88.6987 37.5815 88.832 38.1469 88.832C39.0535 88.832 39.7735 88.5493 40.3069 87.984C40.8509 87.408 41.1229 86.6187 41.1229 85.616C41.1229 84.6133 40.8509 83.8293 40.3069 83.264C39.7735 82.688 39.0535 82.4 38.1469 82.4ZM45.1041 81.216L47.9521 88.128L50.5921 81.216H52.2081L46.9921 94.16H45.3441L47.1681 89.856L43.4721 81.216H45.1041ZM62.4881 78.608C63.8641 78.608 65.0001 78.9493 65.8961 79.632C66.7921 80.304 67.4108 81.2267 67.7521 82.4H66.2161C65.9281 81.6533 65.4641 81.0613 64.8241 80.624C64.1841 80.176 63.4001 79.952 62.4721 79.952C61.7361 79.952 61.0748 80.1333 60.4881 80.496C59.9121 80.848 59.4535 81.36 59.1121 82.032C58.7815 82.6933 58.6161 83.472 58.6161 84.368C58.6161 85.2533 58.7815 86.0267 59.1121 86.688C59.4535 87.3493 59.9121 87.8613 60.4881 88.224C61.0748 88.576 61.7361 88.752 62.4721 88.752C63.4001 88.752 64.1841 88.5333 64.8241 88.096C65.4641 87.648 65.9281 87.0507 66.2161 86.304H67.7521C67.4108 87.4773 66.7921 88.4053 65.8961 89.088C65.0001 89.76 63.8641 90.096 62.4881 90.096C61.4321 90.096 60.4988 89.856 59.6881 89.376C58.8775 88.8853 58.2428 88.208 57.7841 87.344C57.3361 86.4693 57.1121 85.4773 57.1121 84.368C57.1121 83.248 57.3361 82.2507 57.7841 81.376C58.2428 80.5013 58.8775 79.824 59.6881 79.344C60.4988 78.8533 61.4321 78.608 62.4881 78.608ZM71.1553 78.16V90H69.6993V78.16H71.1553ZM73.2401 78.64C73.2401 78.3733 73.3308 78.16 73.5121 78C73.6935 77.8293 73.9335 77.744 74.2321 77.744C74.5308 77.744 74.7708 77.8293 74.9521 78C75.1335 78.16 75.2241 78.3733 75.2241 78.64C75.2241 78.9067 75.1335 79.1253 74.9521 79.296C74.7708 79.456 74.5308 79.536 74.2321 79.536C73.9335 79.536 73.6935 79.456 73.5121 79.296C73.3308 79.1253 73.2401 78.9067 73.2401 78.64ZM74.9521 81.216V90H73.4961V81.216H74.9521ZM85.373 85.12C85.373 85.4293 85.3517 85.696 85.309 85.92H78.285C78.317 86.9227 78.5997 87.6747 79.133 88.176C79.677 88.6773 80.3383 88.928 81.117 88.928C81.821 88.928 82.4077 88.752 82.877 88.4C83.357 88.0373 83.6503 87.5573 83.757 86.96H85.309C85.2023 87.568 84.9623 88.112 84.589 88.592C84.2263 89.072 83.7517 89.4453 83.165 89.712C82.5783 89.9787 81.917 90.112 81.181 90.112C80.3383 90.112 79.5917 89.9307 78.941 89.568C78.2903 89.2053 77.7783 88.688 77.405 88.016C77.0423 87.3333 76.861 86.5333 76.861 85.616C76.861 84.6987 77.0423 83.8987 77.405 83.216C77.7783 82.5333 78.2903 82.0107 78.941 81.648C79.5917 81.2853 80.3383 81.104 81.181 81.104C82.0343 81.104 82.7757 81.2853 83.405 81.648C84.045 82.0107 84.5303 82.496 84.861 83.104C85.2023 83.712 85.373 84.384 85.373 85.12ZM83.901 85.216C83.933 84.5653 83.8263 84.0213 83.581 83.584C83.3357 83.1467 82.9997 82.8213 82.573 82.608C82.1463 82.3947 81.6823 82.288 81.181 82.288C80.381 82.288 79.709 82.5387 79.165 83.04C78.621 83.5307 78.3277 84.256 78.285 85.216H83.901ZM91.9014 81.072C92.9254 81.072 93.752 81.4027 94.3814 82.064C95.0107 82.7147 95.3254 83.6587 95.3254 84.896V90H93.8694V85.024C93.8694 84.1493 93.6454 83.4773 93.1974 83.008C92.7494 82.5387 92.1414 82.304 91.3734 82.304C90.5734 82.304 89.9334 82.5653 89.4534 83.088C88.9734 83.6 88.7334 84.352 88.7334 85.344V90H87.2774V81.216H88.7334V83.296C88.9574 82.5813 89.352 82.032 89.9174 81.648C90.4934 81.264 91.1547 81.072 91.9014 81.072ZM101.751 88.72V90H100.663C99.7666 90 99.0946 89.7867 98.6466 89.36C98.2093 88.9333 97.9906 88.2187 97.9906 87.216V82.48H96.6786V81.216H97.9906V79.024H99.4626V81.216H101.735V82.48H99.4626V87.248C99.4626 87.8133 99.564 88.2027 99.7666 88.416C99.98 88.6187 100.343 88.72 100.855 88.72H101.751Z" fill="black"/>
<rect y="62.0001" width="71.9999" height="6.00003" fill="#444CFC"/>
<rect x="10.4023" y="62" width="61.5953" height="6.00003" fill="#FFA155"/>
<rect x="10.0503" y="62" width="44.6449" height="5.99069" fill="#FFD3AF"/>
<path d="M7.056 32.44C7.44 34.936 8.736 36.184 10.944 36.184C12.624 36.184 13.836 35.452 14.58 33.988C15.324 32.5 15.648 30.184 15.552 27.04C15.168 28.192 14.412 29.116 13.284 29.812C12.18 30.484 10.884 30.82 9.396 30.82C6.948 30.82 5.016 30.088 3.6 28.624C2.208 27.136 1.512 25.036 1.512 22.324C1.512 20.668 1.848 19.192 2.52 17.896C3.192 16.576 4.188 15.544 5.508 14.8C6.852 14.056 8.472 13.684 10.368 13.684C14.064 13.684 16.608 14.812 18 17.068C19.392 19.3 20.088 22.408 20.088 26.392C20.088 30.928 19.38 34.372 17.964 36.724C16.572 39.076 14.232 40.252 10.944 40.252C9.192 40.252 7.68 39.904 6.408 39.208C5.16 38.512 4.188 37.576 3.492 36.4C2.82 35.2 2.424 33.88 2.304 32.44H7.056ZM15.12 22.684C15.12 21.34 14.724 20.236 13.932 19.372C13.164 18.484 12.024 18.04 10.512 18.04C9.216 18.04 8.184 18.424 7.416 19.192C6.648 19.96 6.264 21.028 6.264 22.396C6.264 23.836 6.648 24.952 7.416 25.744C8.208 26.512 9.264 26.896 10.584 26.896C11.808 26.896 12.864 26.536 13.752 25.816C14.664 25.072 15.12 24.028 15.12 22.684ZM41.5986 18.544H29.5386V24.952C30.0906 24.304 30.8466 23.788 31.8066 23.404C32.7906 22.996 33.8706 22.792 35.0466 22.792C36.7986 22.792 38.2506 23.176 39.4026 23.944C40.5786 24.688 41.4426 25.696 41.9946 26.968C42.5706 28.216 42.8586 29.608 42.8586 31.144C42.8586 33.856 42.0906 36.028 40.5546 37.66C39.0426 39.292 36.8706 40.108 34.0386 40.108C32.1906 40.108 30.5826 39.784 29.2146 39.136C27.8466 38.464 26.7786 37.54 26.0106 36.364C25.2426 35.164 24.8226 33.772 24.7506 32.188H29.6826C29.8746 33.268 30.3186 34.132 31.0146 34.78C31.7106 35.404 32.6346 35.716 33.7866 35.716C35.1786 35.716 36.2106 35.296 36.8826 34.456C37.5786 33.592 37.9266 32.452 37.9266 31.036C37.9266 29.692 37.5666 28.648 36.8466 27.904C36.1266 27.16 35.1066 26.788 33.7866 26.788C32.8266 26.788 32.0106 27.004 31.3386 27.436C30.6666 27.844 30.1746 28.396 29.8626 29.092H24.9306V14.08H41.5986V18.544ZM46.1998 27.076C46.1998 35.692 49.4398 40 55.9198 40C59.3518 40 61.8238 38.848 63.3358 36.544C64.8478 34.24 65.6038 31.084 65.6038 27.076C65.6038 23.092 64.8478 19.948 63.3358 17.644C61.8238 15.34 59.3518 14.188 55.9198 14.188C49.4398 14.188 46.1998 18.484 46.1998 27.076ZM60.5998 27.076C60.5998 29.692 60.2758 31.708 59.6278 33.124C59.0038 34.516 57.7678 35.212 55.9198 35.212C54.0478 35.212 52.7878 34.516 52.1398 33.124C51.5158 31.708 51.2038 29.692 51.2038 27.076C51.2038 24.484 51.5158 22.492 52.1398 21.1C52.7878 19.684 54.0478 18.976 55.9198 18.976C57.7678 18.976 59.0038 19.684 59.6278 21.1C60.2758 22.492 60.5998 24.484 60.5998 27.076ZM86.6219 29.524H79.8899V36.364H74.9939V29.524H68.2619V24.88H74.9939V18.004H79.8899V24.88H86.6219V29.524Z" fill="#232536"/>
</svg>
