<svg width="97" height="96" viewBox="0 0 97 96" fill="none" xmlns="http://www.w3.org/2000/svg">
<path d="M2.624 85.456V90H1.168V78.72H4.752C6.04267 78.72 7.008 79.024 7.648 79.632C8.288 80.2293 8.608 81.0507 8.608 82.096C8.608 83.152 8.27733 83.9787 7.616 84.576C6.95467 85.1627 6 85.456 4.752 85.456H2.624ZM4.624 84.24C5.50933 84.24 6.144 84.0533 6.528 83.68C6.92267 83.3067 7.12 82.7787 7.12 82.096C7.12 81.392 6.92267 80.8587 6.528 80.496C6.144 80.1227 5.50933 79.936 4.624 79.936H2.624V84.24H4.624ZM11.7646 82.992C12.0526 82.384 12.474 81.9147 13.0286 81.584C13.5833 81.2427 14.2446 81.072 15.0126 81.072V82.656H14.5646C13.7433 82.656 13.0713 82.8693 12.5486 83.296C12.026 83.712 11.7646 84.4053 11.7646 85.376V90H10.3086V81.216H11.7646V82.992ZM20.4333 81.104C21.2759 81.104 22.0279 81.2853 22.6893 81.648C23.3613 82.0107 23.8839 82.5333 24.2573 83.216C24.6413 83.8987 24.8333 84.6987 24.8333 85.616C24.8333 86.5333 24.6413 87.3333 24.2573 88.016C23.8839 88.688 23.3613 89.2053 22.6893 89.568C22.0279 89.9307 21.2759 90.112 20.4333 90.112C19.5906 90.112 18.8333 89.9307 18.1613 89.568C17.4999 89.2053 16.9773 88.688 16.5933 88.016C16.2093 87.3333 16.0173 86.5333 16.0173 85.616C16.0173 84.6987 16.2093 83.8987 16.5933 83.216C16.9773 82.5333 17.4999 82.0107 18.1613 81.648C18.8333 81.2853 19.5906 81.104 20.4333 81.104ZM20.4333 82.384C19.9106 82.384 19.4253 82.5013 18.9773 82.736C18.5399 82.9707 18.1826 83.3333 17.9053 83.824C17.6386 84.304 17.5053 84.9013 17.5053 85.616C17.5053 86.32 17.6386 86.9173 17.9053 87.408C18.1826 87.888 18.5399 88.2453 18.9773 88.48C19.4253 88.7147 19.9106 88.832 20.4333 88.832C20.9559 88.832 21.4359 88.7147 21.8733 88.48C22.3213 88.2453 22.6786 87.888 22.9453 87.408C23.2226 86.9173 23.3612 86.32 23.3612 85.616C23.3612 84.9013 23.2226 84.304 22.9453 83.824C22.6786 83.3333 22.3213 82.9707 21.8733 82.736C21.4359 82.5013 20.9559 82.384 20.4333 82.384ZM30.6185 79.136C29.8398 79.1253 29.2958 79.2587 28.9865 79.536C28.6878 79.8133 28.5385 80.2933 28.5385 80.976V81.216H30.6185V82.496H28.5385V90H27.0825V82.496H25.8185V81.216H27.0825V80.864C27.0825 78.7627 28.2612 77.76 30.6185 77.856V79.136ZM40.2793 85.12C40.2793 85.4293 40.2579 85.696 40.2153 85.92H33.1913C33.2233 86.9227 33.5059 87.6747 34.0393 88.176C34.5833 88.6773 35.2446 88.928 36.0233 88.928C36.7273 88.928 37.3139 88.752 37.7833 88.4C38.2633 88.0373 38.5566 87.5573 38.6633 86.96H40.2153C40.1086 87.568 39.8686 88.112 39.4953 88.592C39.1326 89.072 38.6579 89.4453 38.0713 89.712C37.4846 89.9787 36.8233 90.112 36.0873 90.112C35.2446 90.112 34.4979 89.9307 33.8473 89.568C33.1966 89.2053 32.6846 88.688 32.3113 88.016C31.9486 87.3333 31.7673 86.5333 31.7673 85.616C31.7673 84.6987 31.9486 83.8987 32.3113 83.216C32.6846 82.5333 33.1966 82.0107 33.8473 81.648C34.4979 81.2853 35.2446 81.104 36.0873 81.104C36.9406 81.104 37.6819 81.2853 38.3113 81.648C38.9513 82.0107 39.4366 82.496 39.7673 83.104C40.1086 83.712 40.2793 84.384 40.2793 85.12ZM38.8073 85.216C38.8393 84.5653 38.7326 84.0213 38.4873 83.584C38.2419 83.1467 37.9059 82.8213 37.4793 82.608C37.0526 82.3947 36.5886 82.288 36.0873 82.288C35.2873 82.288 34.6153 82.5387 34.0713 83.04C33.5273 83.5307 33.2339 84.256 33.1913 85.216H38.8073ZM44.9356 81.104C45.9276 81.104 46.7223 81.3653 47.3196 81.888C47.9276 82.4 48.2956 83.0933 48.4236 83.968H47.0316C46.9676 83.4453 46.749 83.0187 46.3756 82.688C46.013 82.3467 45.5223 82.176 44.9036 82.176C44.381 82.176 43.9703 82.304 43.6716 82.56C43.3836 82.8053 43.2396 83.1413 43.2396 83.568C43.2396 83.888 43.3356 84.1493 43.5276 84.352C43.7303 84.544 43.9756 84.6933 44.2636 84.8C44.5623 84.896 44.9676 85.0027 45.4796 85.12C46.1303 85.2693 46.653 85.424 47.0476 85.584C47.453 85.7333 47.7943 85.9787 48.0716 86.32C48.3596 86.6613 48.5036 87.12 48.5036 87.696C48.5036 88.4107 48.2316 88.992 47.6876 89.44C47.1543 89.888 46.4396 90.112 45.5436 90.112C44.4983 90.112 43.645 89.8613 42.9836 89.36C42.3223 88.8587 41.933 88.16 41.8156 87.264H43.2236C43.277 87.7973 43.5063 88.2293 43.9116 88.56C44.3276 88.8907 44.8716 89.056 45.5436 89.056C46.045 89.056 46.4343 88.928 46.7116 88.672C46.9996 88.416 47.1436 88.08 47.1436 87.664C47.1436 87.3227 47.0423 87.0507 46.8396 86.848C46.637 86.6453 46.3863 86.4907 46.0876 86.384C45.789 86.2773 45.3783 86.1653 44.8556 86.048C44.205 85.8987 43.6823 85.7493 43.2876 85.6C42.9036 85.4507 42.573 85.216 42.2956 84.896C42.029 84.5653 41.8956 84.1227 41.8956 83.568C41.8956 82.832 42.1676 82.24 42.7116 81.792C43.2556 81.3333 43.997 81.104 44.9356 81.104ZM53.2013 81.104C54.1933 81.104 54.9879 81.3653 55.5853 81.888C56.1933 82.4 56.5613 83.0933 56.6893 83.968H55.2973C55.2333 83.4453 55.0146 83.0187 54.6413 82.688C54.2786 82.3467 53.7879 82.176 53.1693 82.176C52.6466 82.176 52.2359 82.304 51.9373 82.56C51.6493 82.8053 51.5053 83.1413 51.5053 83.568C51.5053 83.888 51.6013 84.1493 51.7933 84.352C51.9959 84.544 52.2413 84.6933 52.5293 84.8C52.8279 84.896 53.2333 85.0027 53.7453 85.12C54.3959 85.2693 54.9186 85.424 55.3133 85.584C55.7186 85.7333 56.0599 85.9787 56.3373 86.32C56.6253 86.6613 56.7693 87.12 56.7693 87.696C56.7693 88.4107 56.4973 88.992 55.9533 89.44C55.4199 89.888 54.7053 90.112 53.8093 90.112C52.7639 90.112 51.9106 89.8613 51.2493 89.36C50.5879 88.8587 50.1986 88.16 50.0813 87.264H51.4893C51.5426 87.7973 51.7719 88.2293 52.1773 88.56C52.5933 88.8907 53.1373 89.056 53.8093 89.056C54.3106 89.056 54.6999 88.928 54.9773 88.672C55.2653 88.416 55.4093 88.08 55.4093 87.664C55.4093 87.3227 55.3079 87.0507 55.1053 86.848C54.9026 86.6453 54.6519 86.4907 54.3533 86.384C54.0546 86.2773 53.6439 86.1653 53.1213 86.048C52.4706 85.8987 51.9479 85.7493 51.5533 85.6C51.1693 85.4507 50.8386 85.216 50.5613 84.896C50.2946 84.5653 50.1613 84.1227 50.1613 83.568C50.1613 82.832 50.4333 82.24 50.9773 81.792C51.5213 81.3333 52.2626 81.104 53.2013 81.104ZM58.4589 78.64C58.4589 78.3733 58.5495 78.16 58.7309 78C58.9122 77.8293 59.1522 77.744 59.4509 77.744C59.7495 77.744 59.9895 77.8293 60.1709 78C60.3522 78.16 60.4429 78.3733 60.4429 78.64C60.4429 78.9067 60.3522 79.1253 60.1709 79.296C59.9895 79.456 59.7495 79.536 59.4509 79.536C59.1522 79.536 58.9122 79.456 58.7309 79.296C58.5495 79.1253 58.4589 78.9067 58.4589 78.64ZM60.1709 81.216V90H58.7149V81.216H60.1709ZM66.4958 81.104C67.3384 81.104 68.0904 81.2853 68.7518 81.648C69.4238 82.0107 69.9464 82.5333 70.3198 83.216C70.7038 83.8987 70.8958 84.6987 70.8958 85.616C70.8958 86.5333 70.7038 87.3333 70.3198 88.016C69.9464 88.688 69.4238 89.2053 68.7518 89.568C68.0904 89.9307 67.3384 90.112 66.4958 90.112C65.6531 90.112 64.8958 89.9307 64.2238 89.568C63.5624 89.2053 63.0398 88.688 62.6558 88.016C62.2718 87.3333 62.0798 86.5333 62.0798 85.616C62.0798 84.6987 62.2718 83.8987 62.6558 83.216C63.0398 82.5333 63.5624 82.0107 64.2238 81.648C64.8958 81.2853 65.6531 81.104 66.4958 81.104ZM66.4958 82.384C65.9731 82.384 65.4878 82.5013 65.0398 82.736C64.6024 82.9707 64.2451 83.3333 63.9678 83.824C63.7011 84.304 63.5678 84.9013 63.5678 85.616C63.5678 86.32 63.7011 86.9173 63.9678 87.408C64.2451 87.888 64.6024 88.2453 65.0398 88.48C65.4878 88.7147 65.9731 88.832 66.4958 88.832C67.0184 88.832 67.4984 88.7147 67.9358 88.48C68.3838 88.2453 68.7411 87.888 69.0078 87.408C69.2851 86.9173 69.4237 86.32 69.4237 85.616C69.4237 84.9013 69.2851 84.304 69.0078 83.824C68.7411 83.3333 68.3838 82.9707 67.9358 82.736C67.4984 82.5013 67.0184 82.384 66.4958 82.384ZM77.417 81.072C78.441 81.072 79.2677 81.4027 79.897 82.064C80.5263 82.7147 80.841 83.6587 80.841 84.896V90H79.385V85.024C79.385 84.1493 79.161 83.4773 78.713 83.008C78.265 82.5387 77.657 82.304 76.889 82.304C76.089 82.304 75.449 82.5653 74.969 83.088C74.489 83.6 74.249 84.352 74.249 85.344V90H72.793V81.216H74.249V83.296C74.473 82.5813 74.8677 82.032 75.433 81.648C76.009 81.264 76.6703 81.072 77.417 81.072ZM86.6743 81.104C87.5276 81.104 88.2476 81.3173 88.8343 81.744C89.4316 82.1707 89.8476 82.7413 90.0823 83.456V81.216H91.5383V90H90.0823V87.76C89.8476 88.4747 89.4316 89.0453 88.8343 89.472C88.2476 89.8987 87.5276 90.112 86.6743 90.112C85.8956 90.112 85.2023 89.9307 84.5943 89.568C83.9863 89.2053 83.5063 88.688 83.1543 88.016C82.8129 87.3333 82.6423 86.5333 82.6423 85.616C82.6423 84.6987 82.8129 83.8987 83.1543 83.216C83.5063 82.5333 83.9863 82.0107 84.5943 81.648C85.2023 81.2853 85.8956 81.104 86.6743 81.104ZM87.0903 82.4C86.1943 82.4 85.4743 82.688 84.9303 83.264C84.3969 83.8293 84.1303 84.6133 84.1303 85.616C84.1303 86.6187 84.3969 87.408 84.9303 87.984C85.4743 88.5493 86.1943 88.832 87.0903 88.832C87.6663 88.832 88.1783 88.6987 88.6263 88.432C89.0849 88.1653 89.4423 87.792 89.6983 87.312C89.9543 86.8213 90.0823 86.256 90.0823 85.616C90.0823 84.976 89.9543 84.4107 89.6983 83.92C89.4423 83.4293 89.0849 83.056 88.6263 82.8C88.1783 82.5333 87.6663 82.4 87.0903 82.4ZM95.3115 78.16V90H93.8555V78.16H95.3115Z" fill="black"/>
<rect y="62.0001" width="71.9999" height="6.00003" fill="#444CFC"/>
<rect x="10.4023" y="62" width="61.5953" height="6.00003" fill="#FFA155"/>
<rect x="10.0503" y="62" width="44.6449" height="5.99069" fill="#FFD3AF"/>
<path d="M0.432 19.336V14.584H9.576V40H4.248V19.336H0.432ZM13.5748 27.076C13.5748 35.692 16.8148 40 23.2948 40C26.7268 40 29.1988 38.848 30.7108 36.544C32.2228 34.24 32.9788 31.084 32.9788 27.076C32.9788 23.092 32.2228 19.948 30.7108 17.644C29.1988 15.34 26.7268 14.188 23.2948 14.188C16.8148 14.188 13.5748 18.484 13.5748 27.076ZM27.9748 27.076C27.9748 29.692 27.6508 31.708 27.0028 33.124C26.3788 34.516 25.1428 35.212 23.2948 35.212C21.4228 35.212 20.1628 34.516 19.5148 33.124C18.8908 31.708 18.5788 29.692 18.5788 27.076C18.5788 24.484 18.8908 22.492 19.5148 21.1C20.1628 19.684 21.4228 18.976 23.2948 18.976C25.1428 18.976 26.3788 19.684 27.0028 21.1C27.6508 22.492 27.9748 24.484 27.9748 27.076ZM36.3209 27.076C36.3209 35.692 39.5609 40 46.0409 40C49.4729 40 51.9449 38.848 53.4569 36.544C54.9689 34.24 55.7249 31.084 55.7249 27.076C55.7249 23.092 54.9689 19.948 53.4569 17.644C51.9449 15.34 49.4729 14.188 46.0409 14.188C39.5609 14.188 36.3209 18.484 36.3209 27.076ZM50.7209 27.076C50.7209 29.692 50.3969 31.708 49.7489 33.124C49.1249 34.516 47.8889 35.212 46.0409 35.212C44.1689 35.212 42.9089 34.516 42.2609 33.124C41.6369 31.708 41.3249 29.692 41.3249 27.076C41.3249 24.484 41.6369 22.492 42.2609 21.1C42.9089 19.684 44.1689 18.976 46.0409 18.976C47.8889 18.976 49.1249 19.684 49.7489 21.1C50.3969 22.492 50.7209 24.484 50.7209 27.076ZM76.743 29.524H70.011V36.364H65.115V29.524H58.383V24.88H65.115V18.004H70.011V24.88H76.743V29.524Z" fill="#232536"/>
</svg>
