<svg width="99" height="96" viewBox="0 0 99 96" fill="none" xmlns="http://www.w3.org/2000/svg">
<path d="M2.624 79.904V83.76H6.912V84.88H2.624V88.816H7.392V90H1.168V78.72H7.392V79.904H2.624ZM14.3178 90L12.0298 86.64L9.96575 90H8.34975L11.2298 85.472L8.33375 81.216H9.99775L12.2218 84.48L14.2538 81.216H15.8698L13.0058 85.632L15.9818 90H14.3178ZM22.1879 81.104C22.9665 81.104 23.6599 81.2853 24.2679 81.648C24.8759 82.0107 25.3505 82.5333 25.6919 83.216C26.0439 83.8987 26.2199 84.6987 26.2199 85.616C26.2199 86.5333 26.0439 87.3333 25.6919 88.016C25.3505 88.688 24.8759 89.2053 24.2679 89.568C23.6599 89.9307 22.9665 90.112 22.1879 90.112C21.3345 90.112 20.6092 89.8987 20.0119 89.472C19.4252 89.0347 19.0199 88.464 18.7959 87.76V94.16H17.3399V81.216H18.7959V83.456C19.0199 82.752 19.4252 82.1867 20.0119 81.76C20.6092 81.3227 21.3345 81.104 22.1879 81.104ZM21.7719 82.4C21.2065 82.4 20.6945 82.5333 20.2359 82.8C19.7772 83.056 19.4199 83.4293 19.1639 83.92C18.9079 84.4107 18.7799 84.976 18.7799 85.616C18.7799 86.256 18.9079 86.8213 19.1639 87.312C19.4199 87.792 19.7772 88.1653 20.2359 88.432C20.6945 88.6987 21.2065 88.832 21.7719 88.832C22.6785 88.832 23.3985 88.5493 23.9319 87.984C24.4759 87.408 24.7479 86.6187 24.7479 85.616C24.7479 84.6133 24.4759 83.8293 23.9319 83.264C23.3985 82.688 22.6785 82.4 21.7719 82.4ZM36.2011 85.12C36.2011 85.4293 36.1798 85.696 36.1371 85.92H29.1131C29.1451 86.9227 29.4278 87.6747 29.9611 88.176C30.5051 88.6773 31.1665 88.928 31.9451 88.928C32.6491 88.928 33.2358 88.752 33.7051 88.4C34.1851 88.0373 34.4785 87.5573 34.5851 86.96H36.1371C36.0305 87.568 35.7905 88.112 35.4171 88.592C35.0545 89.072 34.5798 89.4453 33.9931 89.712C33.4065 89.9787 32.7451 90.112 32.0091 90.112C31.1665 90.112 30.4198 89.9307 29.7691 89.568C29.1185 89.2053 28.6065 88.688 28.2331 88.016C27.8705 87.3333 27.6891 86.5333 27.6891 85.616C27.6891 84.6987 27.8705 83.8987 28.2331 83.216C28.6065 82.5333 29.1185 82.0107 29.7691 81.648C30.4198 81.2853 31.1665 81.104 32.0091 81.104C32.8625 81.104 33.6038 81.2853 34.2331 81.648C34.8731 82.0107 35.3585 82.496 35.6891 83.104C36.0305 83.712 36.2011 84.384 36.2011 85.12ZM34.7291 85.216C34.7611 84.5653 34.6545 84.0213 34.4091 83.584C34.1638 83.1467 33.8278 82.8213 33.4011 82.608C32.9745 82.3947 32.5105 82.288 32.0091 82.288C31.2091 82.288 30.5371 82.5387 29.9931 83.04C29.4491 83.5307 29.1558 84.256 29.1131 85.216H34.7291ZM39.5615 82.992C39.8495 82.384 40.2708 81.9147 40.8255 81.584C41.3802 81.2427 42.0415 81.072 42.8095 81.072V82.656H42.3615C41.5402 82.656 40.8682 82.8693 40.3455 83.296C39.8228 83.712 39.5615 84.4053 39.5615 85.376V90H38.1055V81.216H39.5615V82.992ZM43.9901 78.64C43.9901 78.3733 44.0808 78.16 44.2621 78C44.4435 77.8293 44.6835 77.744 44.9821 77.744C45.2808 77.744 45.5208 77.8293 45.7021 78C45.8835 78.16 45.9741 78.3733 45.9741 78.64C45.9741 78.9067 45.8835 79.1253 45.7021 79.296C45.5208 79.456 45.2808 79.536 44.9821 79.536C44.6835 79.536 44.4435 79.456 44.2621 79.296C44.0808 79.1253 43.9901 78.9067 43.9901 78.64ZM45.7021 81.216V90H44.2461V81.216H45.7021ZM56.123 85.12C56.123 85.4293 56.1017 85.696 56.059 85.92H49.035C49.067 86.9227 49.3497 87.6747 49.883 88.176C50.427 88.6773 51.0883 88.928 51.867 88.928C52.571 88.928 53.1577 88.752 53.627 88.4C54.107 88.0373 54.4003 87.5573 54.507 86.96H56.059C55.9523 87.568 55.7123 88.112 55.339 88.592C54.9763 89.072 54.5017 89.4453 53.915 89.712C53.3283 89.9787 52.667 90.112 51.931 90.112C51.0883 90.112 50.3417 89.9307 49.691 89.568C49.0403 89.2053 48.5283 88.688 48.155 88.016C47.7923 87.3333 47.611 86.5333 47.611 85.616C47.611 84.6987 47.7923 83.8987 48.155 83.216C48.5283 82.5333 49.0403 82.0107 49.691 81.648C50.3417 81.2853 51.0883 81.104 51.931 81.104C52.7843 81.104 53.5257 81.2853 54.155 81.648C54.795 82.0107 55.2803 82.496 55.611 83.104C55.9523 83.712 56.123 84.384 56.123 85.12ZM54.651 85.216C54.683 84.5653 54.5763 84.0213 54.331 83.584C54.0857 83.1467 53.7497 82.8213 53.323 82.608C52.8963 82.3947 52.4323 82.288 51.931 82.288C51.131 82.288 50.459 82.5387 49.915 83.04C49.371 83.5307 49.0777 84.256 49.035 85.216H54.651ZM62.6514 81.072C63.6754 81.072 64.502 81.4027 65.1314 82.064C65.7607 82.7147 66.0754 83.6587 66.0754 84.896V90H64.6194V85.024C64.6194 84.1493 64.3954 83.4773 63.9474 83.008C63.4994 82.5387 62.8914 82.304 62.1234 82.304C61.3234 82.304 60.6834 82.5653 60.2034 83.088C59.7234 83.6 59.4834 84.352 59.4834 85.344V90H58.0274V81.216H59.4834V83.296C59.7074 82.5813 60.102 82.032 60.6674 81.648C61.2434 81.264 61.9047 81.072 62.6514 81.072ZM72.1966 81.104C73.3166 81.104 74.2446 81.4027 74.9806 82C75.7166 82.5973 76.17 83.3973 76.3406 84.4H74.8046C74.698 83.7707 74.4046 83.28 73.9246 82.928C73.4553 82.5653 72.8686 82.384 72.1646 82.384C71.6526 82.384 71.1833 82.5013 70.7566 82.736C70.3406 82.9707 70.0046 83.3333 69.7486 83.824C69.4926 84.304 69.3646 84.9013 69.3646 85.616C69.3646 86.3307 69.4926 86.9333 69.7486 87.424C70.0046 87.904 70.3406 88.2613 70.7566 88.496C71.1833 88.7307 71.6526 88.848 72.1646 88.848C72.8686 88.848 73.4553 88.6667 73.9246 88.304C74.4046 87.9413 74.698 87.4453 74.8046 86.816H76.3406C76.17 87.8293 75.7166 88.6347 74.9806 89.232C74.2446 89.8187 73.3166 90.112 72.1966 90.112C71.354 90.112 70.6073 89.9307 69.9566 89.568C69.306 89.2053 68.794 88.688 68.4206 88.016C68.058 87.3333 67.8766 86.5333 67.8766 85.616C67.8766 84.6987 68.058 83.8987 68.4206 83.216C68.794 82.5333 69.306 82.0107 69.9566 81.648C70.6073 81.2853 71.354 81.104 72.1966 81.104ZM86.3261 85.12C86.3261 85.4293 86.3048 85.696 86.2621 85.92H79.2381C79.2701 86.9227 79.5528 87.6747 80.0861 88.176C80.6301 88.6773 81.2915 88.928 82.0701 88.928C82.7741 88.928 83.3608 88.752 83.8301 88.4C84.3101 88.0373 84.6035 87.5573 84.7101 86.96H86.2621C86.1555 87.568 85.9155 88.112 85.5421 88.592C85.1795 89.072 84.7048 89.4453 84.1181 89.712C83.5315 89.9787 82.8701 90.112 82.1341 90.112C81.2915 90.112 80.5448 89.9307 79.8941 89.568C79.2435 89.2053 78.7315 88.688 78.3581 88.016C77.9955 87.3333 77.8141 86.5333 77.8141 85.616C77.8141 84.6987 77.9955 83.8987 78.3581 83.216C78.7315 82.5333 79.2435 82.0107 79.8941 81.648C80.5448 81.2853 81.2915 81.104 82.1341 81.104C82.9875 81.104 83.7288 81.2853 84.3581 81.648C84.9981 82.0107 85.4835 82.496 85.8141 83.104C86.1555 83.712 86.3261 84.384 86.3261 85.12ZM84.8541 85.216C84.8861 84.5653 84.7795 84.0213 84.5341 83.584C84.2888 83.1467 83.9528 82.8213 83.5261 82.608C83.0995 82.3947 82.6355 82.288 82.1341 82.288C81.3341 82.288 80.6621 82.5387 80.1181 83.04C79.5741 83.5307 79.2808 84.256 79.2381 85.216H84.8541Z" fill="black"/>
<rect y="62.0001" width="71.9999" height="6.00003" fill="#444CFC"/>
<rect x="10.4023" y="62" width="61.5953" height="6.00003" fill="#FFA155"/>
<rect x="10.0503" y="62" width="44.6449" height="5.99069" fill="#FFD3AF"/>
<path d="M0.432 19.336V14.584H9.576V40H4.248V19.336H0.432ZM13.5748 27.076C13.5748 35.692 16.8148 40 23.2948 40C26.7268 40 29.1988 38.848 30.7108 36.544C32.2228 34.24 32.9788 31.084 32.9788 27.076C32.9788 23.092 32.2228 19.948 30.7108 17.644C29.1988 15.34 26.7268 14.188 23.2948 14.188C16.8148 14.188 13.5748 18.484 13.5748 27.076ZM27.9748 27.076C27.9748 29.692 27.6508 31.708 27.0028 33.124C26.3788 34.516 25.1428 35.212 23.2948 35.212C21.4228 35.212 20.1628 34.516 19.5148 33.124C18.8908 31.708 18.5788 29.692 18.5788 27.076C18.5788 24.484 18.8908 22.492 19.5148 21.1C20.1628 19.684 21.4228 18.976 23.2948 18.976C25.1428 18.976 26.3788 19.684 27.0028 21.1C27.6508 22.492 27.9748 24.484 27.9748 27.076ZM48.1928 20.056L53.6288 33.592L58.6688 20.056H64.2488L52.0448 49.504H46.4288L50.9288 39.424L42.5408 20.056H48.1928ZM71.7159 23.872C72.4599 22.6 73.4439 21.604 74.6679 20.884C75.8919 20.14 77.2599 19.768 78.7719 19.768V25.204H77.2959C73.5759 25.204 71.7159 26.932 71.7159 30.388V40H66.6399V20.056H71.7159V23.872ZM88.4573 19.804C90.8813 19.804 92.8253 20.416 94.2893 21.64C95.7533 22.864 96.6653 24.496 97.0253 26.536H92.2733C92.0813 25.576 91.6493 24.808 90.9773 24.232C90.3053 23.656 89.4293 23.368 88.3493 23.368C87.4853 23.368 86.8133 23.572 86.3333 23.98C85.8533 24.388 85.6133 24.94 85.6133 25.636C85.6133 26.188 85.8053 26.632 86.1893 26.968C86.5733 27.304 87.0533 27.568 87.6293 27.76C88.2053 27.952 89.0333 28.18 90.1133 28.444C91.6253 28.78 92.8493 29.14 93.7853 29.524C94.7453 29.884 95.5613 30.472 96.2333 31.288C96.9293 32.08 97.2773 33.16 97.2773 34.528C97.2773 36.232 96.6053 37.612 95.2613 38.668C93.9413 39.724 92.1533 40.252 89.8973 40.252C87.3053 40.252 85.2293 39.676 83.6693 38.524C82.1093 37.348 81.1613 35.68 80.8253 33.52H85.6853C85.8053 34.504 86.2373 35.284 86.9813 35.86C87.7253 36.412 88.6973 36.688 89.8973 36.688C90.7613 36.688 91.4213 36.484 91.8773 36.076C92.3333 35.644 92.5613 35.092 92.5613 34.42C92.5613 33.844 92.3573 33.376 91.9493 33.016C91.5653 32.656 91.0733 32.38 90.4733 32.188C89.8973 31.996 89.0693 31.768 87.9893 31.504C86.5013 31.168 85.2893 30.832 84.3533 30.496C83.4413 30.136 82.6493 29.572 81.9773 28.804C81.3293 28.036 81.0053 26.98 81.0053 25.636C81.0053 23.908 81.6653 22.504 82.9853 21.424C84.3053 20.344 86.1293 19.804 88.4573 19.804Z" fill="#232536"/>
</svg>
